<svg xmlns="http://www.w3.org/2000/svg" viewBox="0 0 128 128">
  <defs>
    <linearGradient id="shieldGrad" x1="0%" y1="0%" x2="100%" y2="100%">
      <stop offset="0%" style="stop-color:#06b6d4"/>
      <stop offset="100%" style="stop-color:#10b981"/>
    </linearGradient>
    <linearGradient id="innerGrad" x1="0%" y1="0%" x2="0%" y2="100%">
      <stop offset="0%" style="stop-color:#0f172a"/>
      <stop offset="100%" style="stop-color:#1e293b"/>
    </linearGradient>
  </defs>
  <!-- Shield outer -->
  <path d="M64 8 L112 28 C112 28 116 72 64 120 C12 72 16 28 16 28 Z" fill="url(#shieldGrad)"/>
  <!-- Shield inner -->
  <path d="M64 18 L104 35 C104 35 107 72 64 112 C21 72 24 35 24 35 Z" fill="url(#innerGrad)"/>
  <!-- Lock body -->
  <rect x="48" y="58" width="32" height="26" rx="4" fill="url(#shieldGrad)"/>
  <!-- Lock shackle -->
  <path d="M52 58 V48 C52 38 76 38 76 48 V58" fill="none" stroke="url(#shieldGrad)" stroke-width="5" stroke-linecap="round"/>
  <!-- Keyhole -->
  <circle cx="64" cy="68" r="4" fill="#0f172a"/>
  <rect x="62" y="70" width="4" height="8" rx="1" fill="#0f172a"/>
</svg>
